{"title":"28.Days.Later.2002.DVDRIP.XVID.AC3.B-BRG.TheO","uid":6596605,"size":1466106976,"categoryP":"video","categoryS":"movies","magnet":"?xt=urn:btih:9e4f9b7c1b9d0737ef84637d4148146deb6c2349&amp;dn=28.Days.Later.2002.DVDRIP.XVID.AC3.B-BRG.TheO&amp;tr=udp%3A%2F%2Ftracker.openbittorrent.com%3A80&amp;tr=udp%3A%2F%2Fopen.demonii.com%3A1337&amp;tr=udp%3A%2F%2Ftracker.coppersurfer.tk%3A6969&amp;tr=udp%3A%2F%2Fexodus.desync.com%3A6969","seeders":0,"leechers":1,"uploader":"TvTeam","files":5,"time":1313048034,"description":". \n  &lt;a href=&quot;\nhttp://www.torrenting.com/&quot; rel=&quot;nofollow&quot; target=&quot;_NEW&quot;&gt;\nhttp://www.torrenting.com/&lt;/a&gt;        :     Greatest Movie Tracker on The Net!!!\n &lt;a href=&quot;\nhttp://www.Torrenting.com&quot; rel=&quot;nofollow&quot; target=&quot;_NEW&quot;&gt;\nhttp://www.Torrenting.com&lt;/a&gt;          :     Once &amp; For all ;)\n\n\n               www . Torrenting . Com \n\n(((((((((((((= Enjoy No RAR releases =))))))))))))))))))))\n\n\n...................................NFO:....................................\n\n.     \n  \n   \n   \n                            blues-brothers rg  presents                \n     \n       \n               28.Days.Later.2002.DVDRIP.XVID.AC3.B-BRG.TheO\n             \n     \n  \n   \n   \n                                encode info                            \n     \n\t    \n\t\tFormat                           : AVI\nFormat/Info                      : Audio Video Interleave\nFile size                        : 1.37 GiB\nDuration                         : 1h 48mn\nOverall bit rate                 : 1 802 Kbps\n\nVideo\nID                               : 0\nFormat                           : MPEG-4 Visual\nFormat profile                   : Advanced Simple@L5\nFormat settings, BVOP            : 2\nFormat settings, QPel            : No\nFormat settings, GMC             : No warppoints\nFormat settings, Matrix          : Default (H.263)\nMuxing mode                      : Packed bitstream\nCodec ID                         : XVID\nCodec ID/Hint                    : XviD\nDuration                         : 1h 48mn\nBit rate                         : 1 346 Kbps\nWidth                            : 672 pixels\nHeight                           : 352 pixels\nDisplay aspect ratio             : 1.909\nFrame rate                       : 25.000 fps\nColor space                      : YUV\nChroma subsampling               : 4:2:0\nBit depth                        : 8 bits\nScan type                        : Progressive\nCompression mode                 : Lossy\nBits/(Pixel*Frame)               : 0.228\nStream size                      : 1.02 GiB (75%)\nWriting library                  : XviD 1.2.1 (UTC 2008-12-04)\n\nAudio\nID                               : 1\nFormat                           : AC-3\nFormat/Info                      : Audio Coding 3\nMode extension                   : CM (complete main)\nCodec ID                         : 2000\nDuration                         : 1h 48mn\nBit rate mode                    : Constant\nBit rate                         : 448 Kbps\nChannel(s)                       : 6 channels\nChannel positions                : Front: L C R, Side: L R, LFE\nSampling rate                    : 48.0 KHz\nBit depth                        : 16 bits\nCompression mode                 : Lossy\nStream size                      : 348 MiB (25%)\nAlignment                        : Aligned on interleaves\nInterleave, duration             : 64 ms (1.60 video frames)\nInterleave, preload duration     : 192 ms","torrent":{"xt":"urn:btih:9e4f9b7c1b9d0737ef84637d4148146deb6c2349","amp;dn":"28.Days.Later.2002.DVDRIP.XVID.AC3.B-BRG.TheO","amp;tr":["udp%3A%2F%2Ftracker.openbittorrent.com%3A80","udp%3A%2F%2Fopen.demonii.com%3A1337","udp%3A%2F%2Ftracker.coppersurfer.tk%3A6969","udp%3A%2F%2Fexodus.desync.com%3A6969"],"infoHash":"9e4f9b7c1b9d0737ef84637d4148146deb6c2349","infoHashBuffer":{"type":"Buffer","data":[158,79,155,124,27,157,7,55,239,132,99,125,65,72,20,109,235,108,35,73]},"announce":[],"urlList":[]}}